<?xml version="1.0" encoding="UTF-8"?>
<!DOCTYPE svg PUBLIC "-//W3C//DTD SVG 1.1//EN" "http://www.w3.org/Graphics/SVG/1.1/DTD/svg11.dtd">
<svg xmlns="http://www.w3.org/2000/svg" version="1.1" width="512px" height="512px" style="shape-rendering:geometricPrecision; text-rendering:geometricPrecision; image-rendering:optimizeQuality; fill-rule:evenodd; clip-rule:evenodd" xmlns:xlink="http://www.w3.org/1999/xlink">
<g><path style="opacity:0.992" fill="#e3e8f2" d="M 233.5,23.5 C 315.324,18.5156 382.824,46.8489 436,108.5C 485.502,173.015 499.502,244.682 478,323.5C 452.167,400.667 400.667,452.167 323.5,478C 244.679,499.502 173.012,485.502 108.5,436C 42.2015,378.137 14.7015,305.304 26,217.5C 42.3337,133.624 89.5004,74.4578 167.5,40C 188.922,31.6444 210.922,26.1444 233.5,23.5 Z"/></g>
<g><path style="opacity:1" fill="#c9d7ec" d="M 237.5,63.5 C 304.59,59.9011 360.09,83.2344 404,133.5C 450.788,194.92 459.788,261.587 431,333.5C 400.309,396.834 350.142,434.334 280.5,446C 213.939,452.788 157.772,431.954 112,383.5C 67.1048,330.043 53.4382,269.376 71,201.5C 98.5969,121.729 154.097,75.7289 237.5,63.5 Z"/></g>
<g><path style="opacity:1" fill="#56679c" d="M 256.5,104.5 C 255.502,130.661 255.169,156.995 255.5,183.5C 229.786,190.96 204.119,198.626 178.5,206.5C 177.893,206.376 177.56,206.043 177.5,205.5C 203.093,171.234 229.093,137.234 255.5,103.5C 256.107,103.624 256.44,103.957 256.5,104.5 Z"/></g>
<g><path style="opacity:1" fill="#445496" d="M 256.5,104.5 C 282.883,138.215 308.883,172.215 334.5,206.5C 308.115,199.038 281.781,191.372 255.5,183.5C 255.169,156.995 255.502,130.661 256.5,104.5 Z"/></g>
<g><path style="opacity:1" fill="#6d7eb2" d="M 255.5,183.5 C 255.5,202.167 255.5,220.833 255.5,239.5C 228.623,229.153 201.956,218.32 175.5,207C 176.044,206.283 176.711,205.783 177.5,205.5C 177.56,206.043 177.893,206.376 178.5,206.5C 204.119,198.626 229.786,190.96 255.5,183.5 Z"/></g>
<g><path style="opacity:1" fill="#8695c3" d="M 255.5,183.5 C 281.781,191.372 308.115,199.038 334.5,206.5C 335.043,206.56 335.376,206.893 335.5,207.5C 309.046,218.728 282.379,229.395 255.5,239.5C 255.5,220.833 255.5,202.167 255.5,183.5 Z"/></g>
<g><path style="opacity:1" fill="#56679c" d="M 255.5,279.5 C 255.168,321.67 255.501,363.67 256.5,405.5C 255.923,406.773 255.257,406.773 254.5,405.5C 228.5,353.5 202.5,301.5 176.5,249.5C 177.365,248.417 178.365,248.251 179.5,249C 204.742,259.456 230.075,269.623 255.5,279.5 Z"/></g>
<g><path style="opacity:1" fill="#445496" d="M 256.5,405.5 C 255.501,363.67 255.168,321.67 255.5,279.5C 282.104,268.311 308.771,257.978 335.5,248.5C 308.898,300.705 282.564,353.038 256.5,405.5 Z"/></g>
</svg>
